PathFileType	4	(X/Y/Z)	D:\Temporary Files\修改scale文件\BD0001.trc
DataRate	CameraRate	NumFrames	NumMarkers	Units	OrigDataRate	OrigDataStartFrame	OrigNumFrames
200.000000	200.000000	5	38	mm	200.000000	201	804
Frame#	Time	Top.Head			L.Acromium			R.Acromium			Sternum			L.ASIS			R.ASIS			V.Sacral			R.Knee.Lat			R.Knee.Med			L.Knee.Lat			L.Knee.Med			L.Ankle.Lat			L.Toe.Tip			R.Heel			R.Ankle.Med			R.Ankle.Lat			L.Toe.Med			L.Toe.Lat			L.Heel			L.Ankle.Med			L.Shank1			L.Shank2			R.Toe.Tip			R.Toe.Med			R.Toe.Lat			L.PSIS			R.PSIS			R.iliac.crest			L.iliac.crest			L.Shank3			L.Shank4			R.Shank4			L.Thigh4			R.Thigh4			R.Heel.Lat			R.Heel.Med			L.Heel.Lat			L.Heel.Med			
		X1	Y1	Z1	X2	Y2	Z2	X3	Y3	Z3	X4	Y4	Z4	X5	Y5	Z5	X6	Y6	Z6	X7	Y7	Z7	X8	Y8	Z8	X9	Y9	Z9	X10	Y10	Z10	X11	Y11	Z11	X12	Y12	Z12	X13	Y13	Z13	X14	Y14	Z14	X15	Y15	Z15	X16	Y16	Z16	X17	Y17	Z17	X18	Y18	Z18	X19	Y19	Z19	X20	Y20	Z20	X21	Y21	Z21	X22	Y22	Z22	X23	Y23	Z23	X24	Y24	Z24	X25	Y25	Z25	X26	Y26	Z26	X27	Y27	Z27	X28	Y28	Z28	X29	Y29	Z29	X30	Y30	Z30	X31	Y31	Z31	X32	Y32	Z32	X33	Y33	Z33	X34	Y34	Z34	X35	Y35	Z35	X36	Y36	Z36	X37	Y37	Z37	X38	Y38	Z38	
202	1.005	921.994085676543	1692.93767747136	-991.616330913385	930.692595425672	1409.76810857095	-817.107593274537	1089.92354040954	1400.23046661705	-1089.47789906676	898.026661674545	1359.2450872567	-1019.060403849	802.923527994273	911.677045425693	-933.143219706237	926.149542578926	931.560221933613	-1134.83814047575	1007.27417384576	964.453391907871	-953.755118331356	1002.86884967095	475.063037385044	-1166.01653083358	947.908492835703	454.735426789645	-1065.89151143644	848.379917841887	476.202264180383	-847.85024918218	885.300657182245	456.728045566529	-950.537254074464	906.917935160491	102.837890091663	-808.733248045252	726.906584451124	56.3243178627359	-869.054766449	1104.88695697039	34.4096491516975	-1104.20246848606	990.151023946811	103.263912397265	-1115.29901545322	1060.69031389275	105.097771186777	-1173.95904397509	786.870656774993	45.2371836053429	-907.892960417625	793.447314516507	46.3507181756134	-802.817743468379	1001.3495557683	31.5356839365862	-814.593172161925	927.033903221183	104.583270945714	-894.635608538042	831.145639069161	388.184035782383	-836.806052998642	828.784604865988	307.527051445805	-819.68269670535	876.020193725074	54.4301446988499	-1277.22802108229	899.984853010209	44.5095110074325	-1205.429198707	986.473730458137	37.4529004149964	-1275.04200290712	973.741936698112	963.112227932304	-911.150093023907	1028.53701555558	964.903818339892	-999.819578036061	968.870512344443	989.0148101989	-1123.35696162608	832.82856666993	989.090472192067	-901.159478528781	882.777060452089	395.952130428359	-801.742636492112	884.779487103716	309.888228235016	-785.260864865767	1061.93969012088	317.399788961583	-1187.59071753031	837.088141403068	603.550377048814	-833.933814154203	1030.45558740084	568.328454793899	-1149.58444110412	1098.24863364184	32.2245189217265	-1172.69587624849	1024.76881929331	25.3195238216558	-1101.01670470662	935.327010173743	22.3432497117551	-780.1059579101	956.465619127219	27.3290602559185	-883.634277316446
203	1.01	922.000427276937	1692.94150525904	-991.597798274204	930.707058002996	1409.765373928	-817.098698036606	1089.93454388264	1400.22335696777	-1089.46063091659	898.030806055394	1359.25084898526	-1019.05421293127	802.913445309776	911.676689332156	-933.146556872988	926.1353119272	931.561788447337	-1134.84255834306	1007.26514079722	964.46015985698	-953.763690699028	1002.86773751483	475.0618956458	-1166.02191983265	947.912719636319	454.740355865483	-1065.89562148517	848.373007726819	476.202993640123	-847.857000919428	885.306825426358	456.724833544953	-950.532952536436	906.922723524027	102.851345585377	-808.723480568913	726.907289907664	56.3242292192059	-869.054418063915	1104.8913198959	34.4121524033708	-1104.20340584656	990.152567995798	103.266462014735	-1115.29919433546	1060.68097246162	105.0720418296	-1173.96551834247	786.872696264165	45.237321514992	-907.892379642238	793.447946970409	46.354898926542	-802.818376591484	1001.35018680463	31.5324870208248	-814.595708529228	927.037024991219	104.584353810989	-894.632009149014	831.043219065188	388.185335216709	-836.958146104819	828.781798669056	307.52871084319	-819.68270191391	876.02678094393	54.4238772045038	-1277.22219308477	899.986264276818	44.5134948486912	-1205.42790338075	986.477627279818	37.4521680946209	-1275.04328245414	973.733318699475	963.115259436876	-911.155397370188	1028.52650456501	964.903624195807	-999.827854391568	968.856894555133	989.015565494744	-1123.36119429251	832.81933974585	989.095332538576	-901.160879841659	882.774040709059	395.954994753679	-801.744376069277	884.777190587465	309.888932940925	-785.260881376757	1061.93977807664	317.408291037924	-1187.60195771464	837.032161401467	603.633357723807	-833.895774595171	1030.45312861873	568.336704687857	-1149.60139639541	1098.25134413786	32.2263709493049	-1172.69813347583	1024.77025158898	25.3247929812166	-1101.01426941191	935.326260341596	22.3408468259747	-780.103298741948	956.47148783332	27.3280784809563	-883.633864021998
204	1.015	922.009703013994	1692.9459672747	-991.578047074524	930.720423120035	1409.76287305576	-817.091548122863	1089.94340335162	1400.21516114543	-1089.44445072348	898.033272355533	1359.25417696607	-1019.04729127295	802.904106330288	911.675862504408	-933.149105313054	926.121413979381	931.561676699058	-1134.84772603539	1007.25722275751	964.466806384852	-953.771385809712	1002.86375366085	475.061798179465	-1166.02968466678	947.914968893859	454.744820557404	-1065.90077516588	848.345359238805	476.200991349008	-847.890839239682	885.310067484415	456.720873028675	-950.531602523568	906.931305018973	102.870328264159	-808.710346404147	726.90606148761	56.323491723028	-869.054669023663	1104.89428317252	34.4144091729584	-1104.20395114806	990.151919852154	103.268914115398	-1115.29880995077	1060.66894506349	105.04293878767	-1173.97283305494	786.873560536749	45.2361192405258	-907.892739171211	793.448304137219	46.3579143748057	-802.819588289364	1001.35141525489	31.5289096803199	-814.597990860564	927.038555693442	104.584411584719	-894.630587212153	830.916497551089	388.183820098487	-837.14156706998	828.778355856205	307.528637628767	-819.684606909145	876.033872802962	54.4127970799236	-1277.21516863839	899.986317201979	44.5157832660987	-1205.42584160939	986.480810289705	37.4520391670186	-1275.04437820293	973.726811143018	963.116249779682	-911.160210308884	1028.5174106849	964.902637031986	-999.837185871208	968.843332736101	989.018351517271	-1123.36712320181	832.812528076123	989.098809010027	-901.163073248104	882.76768121025	395.9570877303	-801.748262471416	884.773632153932	309.88750293891	-785.262029692131	1061.93795567149	317.416089186041	-1187.61382310952	836.957604292834	603.742123162738	-833.848005187853	1030.45020318484	568.343716121599	-1149.61589970589	1098.25484680971	32.2292582644781	-1172.69983195343	1024.77010758562	25.3282789499811	-1101.01347231696	935.325037623479	22.3367853904805	-780.101079407829	956.476672599581	27.3268109553749	-883.633082667427
205	1.02	922.021652894515	1692.94990370583	-991.55717118222	930.73202666713	1409.75967047526	-817.085443032955	1089.94984416486	1400.20566201939	-1089.42948409546	898.034268922916	1359.25498622239	-1019.03940432176	802.894984466484	911.67441695369	-933.150870737241	926.107760845894	931.559709265315	-1134.85264519908	1007.25023460617	964.472351681791	-953.778150917663	1002.8571404224	475.062967818728	-1166.03838203545	947.915500967834	454.74779256357	-1065.90609212721	848.286535934068	476.194726697522	-847.965183015416	885.308712864598	456.716488281683	-950.534469339802	906.943502922948	102.893653668864	-808.694756746517	726.903147960355	56.3220218836736	-869.055718398424	1104.89488473999	34.4162459932018	-1104.20423654601	990.149476955363	103.272607716559	-1115.29858519274	1060.66004045626	105.020762057816	-1173.97815548056	786.873544499976	45.2339020572417	-907.894041911712	793.448014554083	46.3593389652191	-802.821533958934	1001.3527663505	31.5251271145836	-814.599667589976	927.038997597811	104.582420912725	-894.631513949335	830.784010455179	388.180010398494	-837.328768470852	828.77455519768	307.526985170323	-819.687886950902	876.041312624927	54.3977671692551	-1277.20690270604	899.985406623635	44.5160393019951	-1205.42422496597	986.482669110944	37.4518683406017	-1275.04448111484	973.72126177547	963.114995677008	-911.165762158568	1028.50901866444	964.90095115613	-999.847612826084	968.829914896434	989.022266337969	-1123.3744972124	832.806740958976	989.099687187974	-901.166222856391	882.759172081324	395.957735884157	-801.753642012577	884.768737624539	309.883413007628	-785.264609151048	1061.93506372056	317.421441272009	-1187.62391090865	836.87369504453	603.862403504022	-833.796446637157	1030.44579032108	568.349098333796	-1149.6276439753	1098.2583811771	32.2327045435131	-1172.70048748001	1024.7688916418	25.3295502108528	-1101.0149841918	935.322975066029	22.3314882819801	-780.099834277548	956.48013441445	27.3263491303477	-883.632475941753
206	1.025	922.035830334428	1692.95226190145	-991.535416614976	930.74161570811	1409.7552830239	-817.079261858565	1089.95425813919	1400.19523039319	-1089.41635840152	898.034137577367	1359.25377860243	-1019.0308737399	802.88559400381	911.67207812546	-933.151948999949	926.094560480493	931.556660463215	-1134.856405236	1007.2436812326	964.474446787749	-953.784069569002	1002.84912606791	475.065147651322	-1166.04613235402	947.914194297297	454.748604217954	-1065.91084911365	848.188315248733	476.182807068321	-848.090478846897	885.303470668444	456.712726080533	-950.54147399641	906.956728006373	102.916482955449	-808.679881617344	726.8992810851	56.319786297923	-869.057279324154	1104.89298398056	34.4175442957752	-1104.20436957695	990.146410659522	103.277589678325	-1115.29925101396	1060.65954919518	105.012826684094	-1173.9786569554	786.872974557886	45.2308894184498	-907.8957357098	793.447066093965	46.3593390461059	-802.823967733068	1001.35388661332	31.5215324339705	-814.600763258798	927.039497796408	104.578303497067	-894.633556043229	830.668804028625	388.174907104207	-837.487838866953	828.770385741501	307.524248230697	-819.691978081377	876.048543911884	54.380994720419	-1277.19759757809	899.984176331116	44.5146715574628	-1205.42409059476	986.48326685517	37.4511642433069	-1275.04336332365	973.716233024878	963.112057207092	-911.171921825259	1028.50098901592	964.899337376319	-999.8589141497	968.816991709928	989.025736047357	-1123.38241901016	832.800708904393	989.097070363268	-901.169968357032	882.749832059909	395.956721079283	-801.75980308801	884.762674520461	309.876894092277	-785.268324622002	1061.93213308245	317.423610100551	-1187.62985125575	836.800293999529	603.966685511037	-833.752870633718	1030.43933580161	568.352074106479	-1149.63630372357	1098.26085399008	32.2361673718619	-1172.70005668596	1024.76742674866	25.3287042742737	-1101.01833377823	935.319555038615	22.326773828629	-780.099398025349	956.481770160167	27.3265812972356	-883.631901445915
